<?xml version="1.0" encoding="utf-8"?>
<!-- Generator: Adobe Illustrator 16.0.0, SVG Export Plug-In . SVG Version: 6.00 Build 0)  -->
<!DOCTYPE svg PUBLIC "-//W3C//DTD SVG 1.1//EN" "http://www.w3.org/Graphics/SVG/1.1/DTD/svg11.dtd">
<svg version="1.1" id="Layer_1" xmlns="http://www.w3.org/2000/svg" xmlns:xlink="http://www.w3.org/1999/xlink" x="0px" y="0px"
	 width="556.094px" height="98.333px" viewBox="0 0 556.094 98.333" enable-background="new 0 0 556.094 98.333"
	 xml:space="preserve">
<g>
	<g>
		<path fill="#58595B" d="M354.845,42.774h1.901v13.305h-1.901V42.774z"/>
		<path fill="#58595B" d="M374.167,42.774h1.804v13.305h-1.634l-8.889-10.246v10.246h-1.793V42.774h1.547l8.965,10.331V42.774z"/>
		<path fill="#58595B" d="M381.596,42.753h11.116v1.699h-4.634v11.626h-1.919V44.453h-4.563V42.753z"/>
		<path fill="#58595B" d="M398.414,42.774h7.544v1.699h-5.643v4.049h5.457v1.711h-5.457v4.124h5.829v1.699h-7.73V42.774z"/>
		<path fill="#58595B" d="M412.123,56.079V42.774h3.336c1.347,0,2.417,0.336,3.211,1c0.785,0.664,1.184,1.567,1.184,2.704
			c0,0.772-0.197,1.444-0.579,2.011c-0.391,0.562-0.942,0.983-1.67,1.262c0.427,0.281,0.844,0.663,1.25,1.146
			c0.407,0.485,0.981,1.323,1.717,2.523c0.462,0.758,0.835,1.328,1.116,1.705l0.7,0.954h-2.266l-0.578-0.88
			c-0.017-0.031-0.059-0.087-0.116-0.162l-0.372-0.522l-0.589-0.975l-0.636-1.035c-0.394-0.55-0.756-0.982-1.086-1.307
			c-0.325-0.325-0.619-0.556-0.883-0.692c-0.266-0.152-0.708-0.22-1.335-0.22h-0.499v5.792H412.123z M414.601,44.398h-0.574v4.19
			h0.729c0.96,0,1.628-0.082,1.98-0.25c0.361-0.165,0.647-0.407,0.846-0.744c0.2-0.331,0.302-0.71,0.302-1.134
			c0-0.421-0.113-0.801-0.338-1.139c-0.217-0.339-0.536-0.577-0.936-0.716C416.204,44.468,415.537,44.398,414.601,44.398z"/>
		<path fill="#58595B" d="M438.324,42.774h1.81v13.305h-1.638l-8.893-10.246v10.246h-1.796V42.774h1.545l8.971,10.331V42.774z"/>
		<path fill="#58595B" d="M451.127,42.7h1.333l5.961,13.379h-1.947l-1.774-3.943h-5.667l-1.663,3.943h-1.957L451.127,42.7z
			 M453.934,50.439l-2.158-4.813l-1.989,4.813H453.934z"/>
		<path fill="#58595B" d="M460.712,42.753h11.115v1.699h-4.635v11.626h-1.917V44.453h-4.563V42.753z"/>
		<path fill="#58595B" d="M477.551,42.774h1.906v13.305h-1.906V42.774z"/>
		<path fill="#58595B" d="M492.833,42.581c2.053,0,3.762,0.648,5.129,1.952c1.365,1.301,2.048,2.932,2.048,4.898
			c0,1.963-0.687,3.581-2.066,4.87c-1.38,1.288-3.117,1.931-5.213,1.931c-2.001,0-3.674-0.644-4.999-1.931
			c-1.337-1.289-2.011-2.902-2.011-4.832c0-1.982,0.674-3.635,2.019-4.936C489.082,43.229,490.78,42.581,492.833,42.581z
			 M492.912,44.385c-1.52,0-2.772,0.478-3.752,1.431c-0.98,0.954-1.464,2.168-1.464,3.652c0,1.435,0.484,2.631,1.472,3.579
			c0.98,0.952,2.216,1.431,3.685,1.431c1.487,0,2.721-0.484,3.711-1.458c0.996-0.974,1.494-2.179,1.494-3.631
			c0-1.413-0.498-2.595-1.494-3.558C495.573,44.869,494.355,44.385,492.912,44.385z"/>
		<path fill="#58595B" d="M516.842,42.774h1.802v13.305h-1.637l-8.885-10.246v10.246h-1.8V42.774h1.549l8.97,10.331V42.774z"/>
		<path fill="#58595B" d="M529.635,42.7h1.341l5.967,13.379h-1.951l-1.779-3.943h-5.663l-1.659,3.943h-1.954L529.635,42.7z
			 M532.444,50.439l-2.147-4.813l-1.995,4.813H532.444z"/>
		<path fill="#58595B" d="M542.319,42.774h1.901v11.574h5.988v1.731h-7.89V42.774z"/>
	</g>
	<path fill="#58595B" d="M150.531,45.184v17.347c-4.14,1.461-9.313,2.861-14.731,2.861c-15.157,0-22.948-10.467-22.948-22.156
		c0-10.774,8.4-21.913,23.741-21.913c6.208,0,11.076,2.008,13.634,4.139l-2.435,3.53c-2.558-1.766-6.453-3.41-11.14-3.41
		c-11.079,0-17.288,7.548-17.288,17.532c0,10.772,7.367,18.019,16.62,18.019c3.59,0,6.269-0.366,8.643-1.521V45.184H150.531z"/>
	<path fill="#58595B" d="M159.966,49.811c-0.06,6.086,4.262,11.686,10.289,11.686c2.8,0,6.208-1.032,8.339-2.615l1.583,2.983
		c-3.166,2.252-6.941,3.528-10.105,3.528c-9.496,0-15.766-5.841-15.766-16.556c0-10.531,7.548-15.338,14.427-15.338
		c9.251,0,12.354,8.338,11.748,16.313H159.966z M175.487,46.158c0-4.748-2.009-8.765-6.816-8.765c-5.843,0-8.157,4.868-8.34,8.765
		H175.487z"/>
	<path fill="#58595B" d="M189.61,38c2.863-3.045,7.247-4.502,10.41-4.502c7.002,0,10.775,3.895,10.775,11.565v19.601h-5.478V46.22
		c0-5.723-2.437-8.705-7.367-8.705c-4.322,0-8.279,2.981-8.279,8.824v18.325h-5.478V34.228h5.416V38z"/>
	<path fill="#58595B" d="M214.689,49.078c0-9.859,7.305-15.58,14.975-15.58c7.669,0,15.036,5.721,15.036,15.58
		c0,9.436-6.026,16.314-15.036,16.314C220.715,65.392,214.689,58.514,214.689,49.078z M220.594,49.078
		c0,5.724,1.948,12.418,9.07,12.418c7.183,0,9.13-6.694,9.13-12.418c0-5.478-2.252-11.685-9.13-11.685
		C222.846,37.393,220.594,43.6,220.594,49.078z"/>
	<path fill="#58595B" d="M254.014,38c2.497-2.924,6.149-4.502,9.495-4.502c4.81,0,7.793,2.006,9.68,4.502
		c2.922-2.679,7.061-4.502,10.468-4.502c6.758,0,10.167,4.381,10.348,10.833v20.332h-5.475v-18.14c0-4.382-1.097-8.764-6.698-8.764
		c-4.628,0-7.793,2.434-7.793,8.58v18.325h-5.476v-18.14c0-5.723-2.437-8.764-6.88-8.764c-4.626,0-7.61,2.981-7.61,8.824v18.081
		h-5.476V34.228h5.417V38z"/>
	<path fill="#58595B" d="M303.565,49.811c-0.06,6.086,4.259,11.686,10.288,11.686c2.8,0,6.209-1.032,8.338-2.615l1.583,2.983
		c-3.165,2.252-6.941,3.528-10.104,3.528c-9.496,0-15.768-5.841-15.768-16.556c0-10.531,7.551-15.338,14.427-15.338
		c9.253,0,12.357,8.338,11.75,16.313H303.565z M319.086,46.158c0-4.748-2.007-8.765-6.815-8.765c-5.847,0-8.159,4.868-8.343,8.765
		H319.086z"/>
	<g>
		<polygon fill="#58595B" points="339.165,81.119 339.165,17.366 341.066,17.366 341.066,81.119 339.165,81.119 		"/>
	</g>
	<path opacity="0.5" fill="#0054A4" d="M83.17,46.542c-1.041,2.142-2.383,4.106-3.978,5.844c5.054,4.667,8.237,11.33,8.237,18.753
		c0,3.098-0.579,6.054-1.588,8.801c0.766-0.958,1.492-1.961,2.125-3.056C93.83,66.717,91.557,54.088,83.17,46.542z"/>
	<path fill="#002D62" d="M77.763,42.904c-1.006,2.04-2.317,3.955-3.913,5.691c1.942,1.035,3.721,2.325,5.325,3.808
		c1.594-1.736,2.936-3.701,3.979-5.843c-1.25-1.125-2.629-2.142-4.145-3.017C78.599,43.306,78.179,43.113,77.763,42.904z"/>
	<g>
		<g>
			
				<radialGradient id="SVGID_1_" cx="738.3818" cy="-155.1909" r="43.6437" gradientTransform="matrix(0.5 -0.866 0.866 0.5 -217.8518 766.4664)" gradientUnits="userSpaceOnUse">
				<stop  offset="0" style="stop-color:#C1D82F"/>
				<stop  offset="0.3989" style="stop-color:#78A22F"/>
				<stop  offset="0.5672" style="stop-color:#61932E"/>
				<stop  offset="0.8344" style="stop-color:#43822C"/>
				<stop  offset="1" style="stop-color:#387C2B"/>
			</radialGradient>
			<path fill="url(#SVGID_1_)" d="M7.253,58.763C3.767,45.739,11.5,32.348,24.527,28.854c13.026-3.493,26.421,4.243,29.908,17.274
				c3.492,13.023-4.239,26.422-17.267,29.908C24.141,79.528,10.747,71.793,7.253,58.763z"/>
		</g>
		<g>
			
				<radialGradient id="SVGID_2_" cx="755.9775" cy="-126.8022" r="47.0814" gradientTransform="matrix(0.5 -0.866 0.866 0.5 -214.55 782.9664)" gradientUnits="userSpaceOnUse">
				<stop  offset="0.0112" style="stop-color:#AEC5E7"/>
				<stop  offset="0.5562" style="stop-color:#026CB6"/>
				<stop  offset="0.7328" style="stop-color:#005395"/>
				<stop  offset="0.9944" style="stop-color:#002D65"/>
			</radialGradient>
			<path fill="url(#SVGID_2_)" d="M88.028,76.849c-6.749,11.678-21.686,15.676-33.361,8.937
				c-11.68-6.743-15.685-21.687-8.934-33.363c6.739-11.682,21.674-15.683,33.356-8.932C90.771,50.228,94.768,65.168,88.028,76.849z"
				/>
		</g>
		<path opacity="0.65" fill="#387C2B" d="M32.46,38.391c-0.178-0.662-0.317-1.328-0.438-1.989
			c1.063,7.329,4.921,13.742,10.456,18.143c-3.812,4.459-6.128,10.23-6.128,16.559c0,1.709,0.174,3.374,0.495,4.991
			c2.547-0.653,4.94-1.701,7.111-3.093c-2.042-5.605-1.976-11.747,0.155-17.241c0.029,0.021,0.732-1.666,0.867-1.938
			C38.981,50.798,34.336,45.386,32.46,38.391z"/>
		<path opacity="0.65" fill="#00549E" d="M84.216,47.44c-1.478-1.474-3.166-2.786-5.061-3.878c-0.402-0.231-0.929-0.516-1.338-0.724
			c-3.006,6.071-8.445,10.822-15.502,12.71c-6.032,1.617-12.136,0.805-17.307-1.804c0,0-0.69,1.537-0.898,2.017
			c4.551,3.093,10.13,4.961,16.048,4.961C70.29,60.721,79.179,55.418,84.216,47.44z"/>
		<g>
			
				<radialGradient id="SVGID_3_" cx="768.6592" cy="-143.6411" r="43.6431" gradientTransform="matrix(0.5 -0.866 0.866 0.5 -217.8518 766.4664)" gradientUnits="userSpaceOnUse">
				<stop  offset="0.0112" style="stop-color:#E51B23"/>
				<stop  offset="0.228" style="stop-color:#C3231C"/>
				<stop  offset="0.5674" style="stop-color:#8A1F03"/>
				<stop  offset="1" style="stop-color:#790000"/>
			</radialGradient>
			<path fill="url(#SVGID_3_)" d="M32.394,38.319C28.907,25.294,36.64,11.903,49.667,8.41c13.027-3.494,26.423,4.243,29.909,17.274
				c3.494,13.023-4.238,26.421-17.267,29.909C49.281,59.083,35.887,51.349,32.394,38.319z"/>
		</g>
	</g>
</g>
</svg>
